<svg xmlns="http://www.w3.org/2000/svg" viewBox="0 0 101 118">
    <defs>
        <linearGradient x1="100%" y1="6.277%" x2="0%" y2="93.723%" id="a">
            <stop stop-color="#32C5FF" offset="0%"/>
            <stop stop-color="#B620E0" offset="51.258%"/>
            <stop stop-color="#F7B500" offset="100%"/>
        </linearGradient>
        <linearGradient x1="90.676%" y1="0%" x2="9.324%" y2="100%" id="b">
            <stop stop-color="#32C5FF" offset="0%"/>
            <stop stop-color="#B620E0" offset="51.258%"/>
            <stop stop-color="#F7B500" offset="100%"/>
        </linearGradient>
        <linearGradient x1="100%" y1="18.619%" x2="0%" y2="81.381%" id="c">
            <stop stop-color="#32C5FF" offset="0%"/>
            <stop stop-color="#B620E0" offset="51.258%"/>
            <stop stop-color="#F7B500" offset="100%"/>
        </linearGradient>
        <linearGradient x1="100%" y1="44.651%" x2="0%" y2="55.349%" id="d">
            <stop stop-color="#32C5FF" offset="0%"/>
            <stop stop-color="#B620E0" offset="51.258%"/>
            <stop stop-color="#F7B500" offset="100%"/>
        </linearGradient>
        <linearGradient x1="100%" y1="47.45%" x2="0%" y2="52.55%" id="e">
            <stop stop-color="#32C5FF" offset="0%"/>
            <stop stop-color="#B620E0" offset="51.258%"/>
            <stop stop-color="#F7B500" offset="100%"/>
        </linearGradient>
        <linearGradient x1="100%" y1="49.963%" x2="0%" y2="50.037%" id="f">
            <stop stop-color="#32C5FF" offset="0%"/>
            <stop stop-color="#B620E0" offset="51.258%"/>
            <stop stop-color="#F7B500" offset="100%"/>
        </linearGradient>
    </defs>
    <g fill-rule="nonzero" fill="none">
        <path d="M39.244 101.709c-9-12.671-9-30.773 0-38.013 9.001-7.24 23.402-5.43 28.802 10.86 5.4 16.292 16.202 12.672 19.802 9.051 3.6-3.62 3.6-9.05 2.623-14.18-.976-5.128-4.451-12.116-10.615-18.772-6.164-6.656-18.342-12.301-31.611-12.301-13.27 0-29.75 11.67-34.202 23.532-4.452 11.86-3.6 21.721-1.8 28.962 1.8 7.24.155 9.897-1.986 9.897-1.626 0-3.417-1.79-5.215-9.897-5.137-23.296 3.6-47.064 23.402-56.115 19.801-9.05 39.602-5.43 55.804 9.051 16.2 14.481 18 43.444 5.4 48.874s-18.001 1.81-25.202-7.24c-7.2-9.051-3.6-18.102-14.4-18.102-14.402 0-9.484 22.421-6.402 27.712 4.452 7.509 13.954 14.677 23.885 18.005 2.054.683 2.825 2.986 1.37 4.266-.857.768-2.14.94-4.452.342-5.308-1.11-16.202-3.261-25.203-15.932Z"
              fill="url(#a)" id="1"/>
        <path d="M32.044 114.38c-16.201-12.671-16.429-40.068-10.915-49.902 5.514-9.833 14.515-17.074 25.316-18.884 16.201-1.81 30.602 7.24 34.202 18.102 3.6 10.86 0 16.291-2.931 15.801-1.199-.597-1.798-2.133-2.14-5.632-1.199-11.946-11.09-21.977-25.511-21.504-14.42.474-24.537 14.467-25.222 25.816-.685 11.35 3.6 27.152 12.552 32.381 8.951 5.23.605 8.48-5.351 3.822Z"
              fill="url(#b)" id="2"/>
        <path d="M63.004 103.519c-8.731-5.12-16.714-15.255-16.2-23.532.256-3.584 1.377-5.269 3.346-5.269 1.627 0 3.683 1.838 3.854 3.459 1.198 8.96 3.6 12.67 10.8 18.101 7.201 5.43 19.802 3.62 21.216 4.808 1.413 1.188 1.284 3.584.342 4.182-1.455.853-14.626 3.37-23.358-1.75Z"
              fill="url(#c)" id="3"/>
        <path d="M1.012 46.711c-2.825-1.621.44-8.686 7.63-15.598 12.413-12.032 19.802-14.481 34.203-16.291 14.4-1.81 21.601 0 34.202 5.43 12.601 5.43 26.961 22.415 23.402 25.342-3.56 2.927-5.4 0-9.464-4.856-4.063-4.857-17.538-18.676-40.94-18.676-23.402 0-35.62 12.528-40.644 18.42-4.36 5.112-5.564 7.85-8.39 6.23Z"
              fill="url(#d)" id="4"/>
        <path d="M21.243 5.771C27.321 2.7 32.745 1.706 44.645.341c11.9-1.366 25.817 1.438 37.802 7.24 2.397 1.11 3.658 4.126 3.487 5.49-.342 2.476-3.51 2.646-8.646.342-8.39-3.584-15.495-5.12-24.998-5.632C41.418 7.27 30.641 9.047 23.013 13.5c-5.37 3.133-5.24 3.046-7.106 1.28-1.864-1.767-.742-5.936 5.336-9.008Z"
              fill="url(#e)" id="5"/>
    </g>
</svg>