<?xml version="1.0" encoding="UTF-8"?>
<svg width="132px" height="36px" viewBox="0 0 132 36" version="1.1" xmlns="http://www.w3.org/2000/svg" xmlns:xlink="http://www.w3.org/1999/xlink">
    <title>Group 3</title>
    <defs>
        <linearGradient x1="86.1463447%" y1="0%" x2="13.8536553%" y2="100%" id="linearGradient-1">
            <stop stop-color="#32C5FF" offset="0%"></stop>
            <stop stop-color="#B620E0" offset="51.2583893%"></stop>
            <stop stop-color="#F7B500" offset="100%"></stop>
        </linearGradient>
        <path d="M25.0372441,13.0989989 C29.8520092,17.4313553 30.3869831,26.0960682 26.6421658,27.7207018 C22.8973485,29.3453355 21.2924268,28.2622464 19.1525312,25.5545236 C17.0126356,22.8468008 18.0825834,20.1390781 14.87274,20.1390781 C10.5929487,20.1390781 12.0545682,26.8468187 12.9704555,28.4296287 C14.2934038,30.6761978 17.1173896,32.82065 20.068582,33.8162886 C20.6791735,34.0205222 20.9081454,34.7098104 20.475643,35.0927483 C20.2212299,35.3225111 19.8396102,35.3735694 19.1526947,35.1948651 C17.5753333,34.8629856 14.3377661,34.2192365 11.6628965,30.4284246 C8.98802703,26.6376127 8.98802703,21.2221672 11.6628965,19.055989 C14.3377661,16.8898108 18.6175573,17.4313553 20.222479,22.3052563 C21.8274007,27.1791573 25.0372441,26.0960682 26.1071919,25.0129791 C27.1771397,23.92989 27.1771397,22.3052563 26.8868541,20.7708705 C26.5965684,19.2364847 25.5639058,17.1457249 23.7321312,15.1544478 C21.9003566,13.1631707 18.2811697,11.4743652 14.3377661,11.4743652 C10.3943624,11.4743652 5.49621022,14.9658865 4.17326191,18.5144444 C2.8503136,22.0630024 3.10331411,25.0129791 3.63828801,27.1791573 C4.17326191,29.3453355 3.68437602,30.1400847 3.04834318,30.1400847 C2.56495822,30.1400847 2.03265999,29.6044307 1.4983924,27.1791573 C-0.0280864204,20.2096873 2.5683402,13.0989989 8.45305313,10.3912761 C14.3377661,7.68355335 20.222479,8.76664246 25.0372441,13.0989989 Z M23.9672963,19.055989 C25.0372441,22.3052563 23.9672963,23.92989 23.0960983,23.7833154 C22.7399199,23.604611 22.5618307,23.1450855 22.4600655,22.0983886 C22.1038871,18.5243014 19.1641593,15.5233417 14.878554,15.6650317 C10.5929487,15.8067217 7.58663583,19.9929626 7.38310533,23.3883454 C7.17957482,26.7837282 8.45305313,31.5115137 11.1132396,33.075942 C13.7734261,34.6403703 11.292994,35.6128062 9.52300093,34.2192365 C4.70823581,30.4284246 4.6407008,22.2320883 6.27939001,19.2901772 C7.91807923,16.3482662 10.5929487,14.182088 13.8027922,13.6405434 C18.6175573,13.0989989 22.8973485,15.8067217 23.9672963,19.055989 Z M14.9039953,22.3536805 C15.3873803,22.3536805 15.9983344,22.9032907 16.0492171,23.3883454 C16.4053955,26.0689108 17.1191649,27.1791573 19.2590605,28.8037909 C21.3989561,30.4284246 25.1437734,29.88688 25.5639058,30.2422015 C25.9840381,30.5975229 25.9455255,31.3144276 25.665671,31.493132 C25.2331687,31.7484239 21.3191006,32.5017208 18.7240866,30.9699692 C16.1290726,29.4382175 13.7566736,26.4062218 13.9093215,23.92989 C13.9856454,22.8576638 14.3188451,22.3536805 14.9039953,22.3536805 Z M22.8973485,6.05891969 C26.6421658,7.68355335 30.9097722,12.7648689 29.8520092,13.6405434 C28.7942463,14.516218 28.2470875,13.6405434 27.0395019,12.1876298 C25.8319164,10.7347162 21.8274007,6.60046424 14.87274,6.60046424 C7.91807922,6.60046424 4.28694582,10.3484 2.79393004,12.1110422 C1.49839238,13.6405434 1.14024466,14.4597281 0.300681306,13.9746734 C-0.538882045,13.4896187 0.431269842,11.3760517 2.56834019,9.30818701 C6.25733067,5.70857066 8.45305312,4.97583058 12.7328443,4.43428603 C17.0126356,3.89274148 19.1525312,4.43428603 22.8973485,6.05891969 Z M24.5022702,2.26810782 C25.214627,2.59998734 25.5893471,3.50227239 25.5384644,3.91073949 C25.4366992,4.65108612 24.4953706,4.7021445 22.9688918,4.01285627 C20.475643,2.94063012 18.364014,2.48110463 15.5400282,2.32792946 C12.3089813,2.1747543 9.10610814,2.70671611 6.83909891,4.03838546 C5.2432097,4.97583058 5.28167786,4.94990526 4.72746988,4.42132337 C4.1732619,3.89274148 4.50682424,2.64561425 6.31315751,1.72656326 C8.11949078,0.807512278 9.73147564,0.510396705 13.2678182,0.101929601 C16.8041608,-0.306537503 20.9404863,0.532122624 24.5022702,2.26810782 Z M5.24320972,4.97583058 L25.0372441,4.97583058" id="path-2"></path>
    </defs>
    <g id="web" stroke="none" stroke-width="1" fill="none" fill-rule="evenodd">
        <g id="Desktop-HD" transform="translate(-958.000000, -44.000000)" fill-rule="nonzero">
            <g id="Group-3" transform="translate(958.000000, 44.000000)">
                <path d="M47.9371404,32.3526742 C56.9059438,32.3526742 61.0931589,27.3762087 61.0931589,17.4232777 C61.0931589,7.47034668 56.9059438,2.49388118 47.9371404,2.49388118 C38.9965852,2.49388118 34.8234942,7.47034668 34.8234942,17.4232777 C34.8234942,27.3762087 38.9965852,32.3526742 47.9371404,32.3526742 Z M47.9371404,29.3881226 C44.3778673,29.3881226 41.7719708,28.4283757 40.1194512,26.5088818 C38.4669315,24.589388 37.6406717,21.5608533 37.6406717,17.4232777 C37.6406717,13.2857021 38.4669315,10.2571674 40.1194512,8.33767353 C41.7719708,6.41817969 44.3778673,5.45843277 47.9371404,5.45843277 C51.5246618,5.45843277 54.1411512,6.41817969 55.7866089,8.33767353 C57.4320665,10.2571674 58.2547953,13.2857021 58.2547953,17.4232777 C58.2547953,21.5608533 57.4320665,24.589388 55.7866089,26.5088818 C54.1411512,28.4283757 51.5246618,29.3881226 47.9371404,29.3881226 Z M65.2705627,31.2369447 L65.2705627,21.6528527 C65.2705627,21.2251158 65.617312,20.8783666 66.0450489,20.8783666 L72.4314813,20.8783666 L72.4314813,20.8783666 C75.6659002,20.8783666 78.1446797,20.1070144 79.8678199,18.5643101 C81.59096,17.0216058 82.4525301,14.7928602 82.4525301,11.8780733 C82.4525301,8.96328633 81.59096,6.73454071 79.8678199,5.19183641 C78.1446797,3.6491321 75.6659002,2.87777995 72.4314813,2.87777995 L62.9094987,2.87777995 C62.4817618,2.87777995 62.1350126,3.2245292 62.1350126,3.65226608 L62.1350126,31.2369447 C62.1350126,31.6646816 62.4817618,32.0114308 62.9094987,32.0114308 L64.4960766,32.0114308 C64.9238135,32.0114308 65.2705627,31.6646816 65.2705627,31.2369447 Z M65.2705627,17.0753457 L65.2705627,6.65947309 C65.2705627,6.23173621 65.617312,5.88498696 66.0450489,5.88498696 L72.0289445,5.88498696 L72.0289445,5.88498696 C73.5684714,5.88498696 74.8502334,6.05205401 75.8742307,6.38618813 C76.8982279,6.72032224 77.6432742,7.21085955 78.1093694,7.85780007 C78.5754647,8.50474058 78.893257,9.13390801 79.0627462,9.74530234 C79.2322354,10.3566967 79.31698,11.0676203 79.31698,11.8780733 C79.31698,12.6885262 79.2322354,13.3994499 79.0627462,14.0108442 C78.893257,14.6222385 78.5754647,15.2478513 78.1093694,15.8876826 C77.6432742,16.5275139 76.8982279,17.0144966 75.8742307,17.3486307 C74.8502334,17.6827648 73.5684714,17.8498319 72.0289445,17.8498319 L66.0450489,17.8498319 C65.617312,17.8498319 65.2705627,17.5030826 65.2705627,17.0753457 Z M96.2631311,32.3526742 C105.231934,32.3526742 109.41915,27.3762087 109.41915,17.4232777 C109.41915,7.47034668 105.231934,2.49388118 96.2631311,2.49388118 C87.3225759,2.49388118 83.1494849,7.47034668 83.1494849,17.4232777 C83.1494849,27.3762087 87.3225759,32.3526742 96.2631311,32.3526742 Z M96.2631311,29.3881226 C92.7038579,29.3881226 90.0979615,28.4283757 88.4454419,26.5088818 C86.7929222,24.589388 85.9666623,21.5608533 85.9666623,17.4232777 C85.9666623,13.2857021 86.7929222,10.2571674 88.4454419,8.33767353 C90.0979615,6.41817969 92.7038579,5.45843277 96.2631311,5.45843277 C99.8506524,5.45843277 102.467142,6.41817969 104.1126,8.33767353 C105.758057,10.2571674 106.580786,13.2857021 106.580786,17.4232777 C106.580786,21.5608533 105.758057,24.589388 104.1126,26.5088818 C102.467142,28.4283757 99.8506524,29.3881226 96.2631311,29.3881226 Z M121.338158,31.5131828 L131.869516,3.92850419 C132.022078,3.52889983 131.821811,3.08128048 131.422206,2.92871838 C131.334001,2.8950433 131.240383,2.87777995 131.145968,2.87777995 L129.459117,2.87777995 C129.136699,2.87777995 128.848008,3.07752417 128.734349,3.37924356 L120.366014,25.5938766 C120.215227,25.9941545 119.768502,26.1964075 119.368224,26.0456213 C119.160228,25.9672685 118.99592,25.8033306 118.917098,25.5955122 L110.490204,3.37760802 C110.376091,3.07674396 110.087833,2.87777995 109.766055,2.87777995 L108.098334,2.87777995 C107.670597,2.87777995 107.323848,3.2245292 107.323848,3.65226608 C107.323848,3.74651532 107.341051,3.83997306 107.374611,3.92804479 L117.885909,31.5127234 C118.000331,31.8130008 118.288292,32.0114308 118.609632,32.0114308 L120.614611,32.0114308 C120.93577,32.0114308 121.223609,31.8132196 121.338158,31.5131828 Z" id="OPOV" fill="#000000"></path>
                <g id="Combined-Shape">
                    <use fill="url(#linearGradient-1)" xlink:href="#path-2"></use>
                    <use fill="#55C076" xlink:href="#path-2"></use>
                </g>
            </g>
        </g>
    </g>
</svg>